<svg width="1920" height="1080" viewBox="0 0 1920 1080" fill="none" xmlns="http://www.w3.org/2000/svg">
<g clip-path="url(#clip0_12_107)">
<rect width="1920" height="1080" fill="white"/>
<rect width="1920" height="1080" fill="#1E1E1E"/>
<path d="M1544.59 183.01C1496.63 183.233 1450.83 187.335 1410.54 194.488C1291.83 215.523 1270.27 259.552 1270.27 340.748V447.985H1550.8V483.73H1270.27H1165C1083.47 483.73 1012.08 532.881 989.748 626.383C963.992 733.559 962.849 800.438 989.748 912.346C1009.69 995.647 1057.31 1055 1138.84 1055H1235.29V926.448C1235.29 833.576 1315.4 751.656 1410.54 751.656H1690.74C1768.73 751.656 1831 687.242 1831 608.675V340.748C1831 264.495 1766.87 207.214 1690.74 194.488C1642.55 186.441 1592.55 182.786 1544.59 183.01ZM1392.88 269.258C1421.86 269.258 1445.52 293.38 1445.52 323.04C1445.52 352.594 1421.86 376.494 1392.88 376.494C1363.8 376.494 1340.24 352.594 1340.24 323.04C1340.24 293.38 1363.8 269.258 1392.88 269.258Z" fill="white"/>
<path d="M1866.88 483V607.847C1866.88 704.64 1784.98 786.107 1691.58 786.107H1411.3C1334.53 786.107 1271 851.942 1271 928.977V1196.69C1271 1272.89 1337.13 1317.7 1411.3 1339.56C1500.13 1365.73 1585.31 1370.46 1691.58 1339.56C1762.23 1319.07 1831.89 1277.83 1831.89 1196.69V1089.54H1551.61V1053.82H1831.89H1972.19C2053.74 1053.82 2084.13 996.829 2112.49 911.282C2141.79 823.212 2140.54 738.519 2112.49 625.542C2092.34 544.199 2053.85 483 1972.19 483H1866.88ZM1709.24 1160.98C1738.33 1160.98 1761.9 1184.86 1761.9 1214.39C1761.9 1244.03 1738.33 1268.13 1709.24 1268.13C1680.26 1268.13 1656.59 1244.03 1656.59 1214.39C1656.59 1184.86 1680.26 1160.98 1709.24 1160.98Z" fill="#FFD43B"/>
<path fill-rule="evenodd" clip-rule="evenodd" d="M215 183C203.397 183 194 192.176 194 203.506C194 212.58 200.011 220.244 208.359 222.961C209.409 223.14 209.802 222.525 209.802 221.987C209.802 221.5 209.776 219.885 209.776 218.168C204.5 219.116 203.135 216.912 202.715 215.758C202.479 215.169 201.455 213.349 200.562 212.862C199.827 212.477 198.777 211.529 200.536 211.503C202.19 211.478 203.371 212.99 203.765 213.605C205.655 216.707 208.674 215.835 209.881 215.297C210.065 213.964 210.616 213.067 211.22 212.554C206.547 212.041 201.665 210.273 201.665 202.429C201.665 200.199 202.479 198.354 203.818 196.918C203.608 196.406 202.872 194.304 204.027 191.484C204.027 191.484 205.786 190.946 209.802 193.586C211.482 193.125 213.268 192.894 215.053 192.894C216.838 192.894 218.623 193.125 220.303 193.586C224.319 190.92 226.078 191.484 226.078 191.484C227.233 194.304 226.498 196.406 226.288 196.918C227.626 198.354 228.44 200.174 228.44 202.429C228.44 210.298 223.531 212.041 218.859 212.554C219.62 213.195 220.276 214.425 220.276 216.348C220.276 219.09 220.25 221.295 220.25 221.987C220.25 222.525 220.644 223.166 221.694 222.961C229.989 220.244 236 212.554 236 203.506C236 192.176 226.603 183 215 183Z" fill="white"/>
<path d="M265.152 217.078C263.004 217.078 261.318 216.857 260.094 216.414C258.87 215.971 258.004 215.21 257.496 214.129C257.001 213.048 256.754 211.564 256.754 209.676V199.52H251.168V195.125H256.754V189.148L262.477 186.609V195.125H269.957V199.52H262.477V209.949C262.477 210.913 262.717 211.609 263.199 212.039C263.694 212.469 264.482 212.684 265.562 212.684H269.957V217.078H265.152ZM275.777 220.926H276.402H276.988C277.939 220.926 278.707 220.887 279.293 220.809C279.879 220.743 280.354 220.568 280.719 220.281C281.096 220.008 281.435 219.565 281.734 218.953C282.034 218.341 282.379 217.488 282.77 216.395L274.449 195.125H280.465L285.465 209.324L290.25 195.125H296.266L287.184 219.363C286.793 220.418 286.311 221.395 285.738 222.293C285.178 223.191 284.475 223.914 283.629 224.461C282.783 225.008 281.741 225.281 280.504 225.281H275.777V220.926ZM301.91 195.125H307.066L307.633 198.523C308.193 197.286 309.046 196.323 310.191 195.633C311.35 194.943 312.704 194.598 314.254 194.598C315.855 194.598 317.34 194.969 318.707 195.711V201.16C317.444 200.014 315.79 199.441 313.746 199.441C312.092 199.441 310.751 199.819 309.723 200.574C308.694 201.329 308.056 202.417 307.809 203.836C307.743 204.174 307.698 204.585 307.672 205.066C307.646 205.548 307.633 206.167 307.633 206.922V217H301.91V195.125ZM333.336 217.566C331.266 217.566 329.469 217.104 327.945 216.18C326.435 215.242 325.27 213.914 324.449 212.195C323.629 210.477 323.219 208.445 323.219 206.102C323.219 203.758 323.629 201.727 324.449 200.008C325.283 198.276 326.461 196.941 327.984 196.004C329.521 195.066 331.337 194.598 333.434 194.598C335.504 194.598 337.288 195.06 338.785 195.984C340.283 196.896 341.435 198.204 342.242 199.91C343.062 201.616 343.473 203.641 343.473 205.984C343.473 208.367 343.056 210.424 342.223 212.156C341.402 213.888 340.237 215.223 338.727 216.16C337.216 217.098 335.419 217.566 333.336 217.566ZM333.355 212.918C334.697 212.918 335.764 212.306 336.559 211.082C337.353 209.845 337.75 208.178 337.75 206.082C337.75 203.973 337.353 202.306 336.559 201.082C335.764 199.858 334.697 199.246 333.355 199.246C332.001 199.246 330.927 199.865 330.133 201.102C329.339 202.326 328.941 203.986 328.941 206.082C328.941 208.178 329.339 209.845 330.133 211.082C330.927 212.306 332.001 212.918 333.355 212.918ZM348.766 195.125H353.883L354.449 198.406C354.853 197.182 355.543 196.245 356.52 195.594C357.509 194.93 358.707 194.598 360.113 194.598C362.145 194.598 363.688 195.294 364.742 196.688C365.797 198.081 366.324 200.118 366.324 202.801V217H360.641V203.68C360.641 202.143 360.419 201.023 359.977 200.32C359.547 199.604 358.876 199.246 357.965 199.246C356.858 199.246 355.992 199.715 355.367 200.652C354.755 201.59 354.449 202.866 354.449 204.48V217H348.766V195.125ZM382.633 217.566C378.87 217.566 376.005 216.596 374.039 214.656C372.086 212.703 371.109 209.884 371.109 206.199C371.109 203.868 371.513 201.837 372.32 200.105C373.128 198.361 374.332 197.007 375.934 196.043C377.548 195.079 379.566 194.598 381.988 194.598C383.98 194.598 385.706 195.06 387.164 195.984C388.622 196.909 389.749 198.198 390.543 199.852C391.35 201.492 391.754 203.406 391.754 205.594V207.918H376.93C376.93 211.329 378.922 213.035 382.906 213.035C385.523 213.035 388.167 212.247 390.836 210.672V215.926C388.18 217.02 385.445 217.566 382.633 217.566ZM385.992 203.621C385.992 202.111 385.621 200.971 384.879 200.203C384.137 199.422 383.076 199.031 381.695 199.031C380.289 199.031 379.189 199.428 378.395 200.223C377.6 201.017 377.132 202.15 376.988 203.621H385.992ZM405.602 192.527C405.211 192.527 405.016 192.332 405.016 191.941V186.434C405.016 186.043 405.211 185.848 405.602 185.848H410.152C410.543 185.848 410.738 186.043 410.738 186.434V191.941C410.738 192.332 410.543 192.527 410.152 192.527H405.602ZM396.93 220.887H401.5C402.763 220.887 403.661 220.522 404.195 219.793C404.742 219.064 405.016 217.853 405.016 216.16V199.52H399.215V195.125H410.738V216.16C410.738 219.415 410.146 221.746 408.961 223.152C407.776 224.572 405.823 225.281 403.102 225.281H396.93V220.887ZM429.742 217.566C427.672 217.566 425.875 217.104 424.352 216.18C422.841 215.242 421.676 213.914 420.855 212.195C420.035 210.477 419.625 208.445 419.625 206.102C419.625 203.758 420.035 201.727 420.855 200.008C421.689 198.276 422.867 196.941 424.391 196.004C425.927 195.066 427.743 194.598 429.84 194.598C431.91 194.598 433.694 195.06 435.191 195.984C436.689 196.896 437.841 198.204 438.648 199.91C439.469 201.616 439.879 203.641 439.879 205.984C439.879 208.367 439.462 210.424 438.629 212.156C437.809 213.888 436.643 215.223 435.133 216.16C433.622 217.098 431.826 217.566 429.742 217.566ZM429.762 212.918C431.103 212.918 432.171 212.306 432.965 211.082C433.759 209.845 434.156 208.178 434.156 206.082C434.156 203.973 433.759 202.306 432.965 201.082C432.171 199.858 431.103 199.246 429.762 199.246C428.408 199.246 427.333 199.865 426.539 201.102C425.745 202.326 425.348 203.986 425.348 206.082C425.348 208.178 425.745 209.845 426.539 211.082C427.333 212.306 428.408 212.918 429.762 212.918ZM453.707 217.566C451.246 217.566 448.518 217.111 445.523 216.199V211.199C448.089 212.671 450.66 213.406 453.238 213.406C455.921 213.406 457.262 212.612 457.262 211.023C457.262 210.32 456.943 209.754 456.305 209.324C455.667 208.895 454.579 208.517 453.043 208.191L451.461 207.84C447.268 206.902 445.172 204.747 445.172 201.375C445.172 199.214 445.947 197.547 447.496 196.375C449.059 195.19 451.318 194.598 454.273 194.598C455.419 194.598 456.552 194.695 457.672 194.891C458.805 195.086 459.97 195.392 461.168 195.809V200.809C460.022 200.092 458.922 199.572 457.867 199.246C456.826 198.921 455.751 198.758 454.645 198.758C453.342 198.758 452.34 198.947 451.637 199.324C450.934 199.702 450.582 200.21 450.582 200.848C450.582 201.434 450.908 201.941 451.559 202.371C452.223 202.788 453.29 203.165 454.762 203.504L456.617 203.953C458.701 204.448 460.224 205.242 461.188 206.336C462.164 207.43 462.652 208.875 462.652 210.672C462.652 215.268 459.671 217.566 453.707 217.566ZM479.039 217.566C475.276 217.566 472.411 216.596 470.445 214.656C468.492 212.703 467.516 209.884 467.516 206.199C467.516 203.868 467.919 201.837 468.727 200.105C469.534 198.361 470.738 197.007 472.34 196.043C473.954 195.079 475.973 194.598 478.395 194.598C480.387 194.598 482.112 195.06 483.57 195.984C485.029 196.909 486.155 198.198 486.949 199.852C487.757 201.492 488.16 203.406 488.16 205.594V207.918H473.336C473.336 211.329 475.328 213.035 479.312 213.035C481.93 213.035 484.573 212.247 487.242 210.672V215.926C484.586 217.02 481.852 217.566 479.039 217.566ZM482.398 203.621C482.398 202.111 482.027 200.971 481.285 200.203C480.543 199.422 479.482 199.031 478.102 199.031C476.695 199.031 475.595 199.428 474.801 200.223C474.007 201.017 473.538 202.15 473.395 203.621H482.398ZM503.141 217.566C499.378 217.566 496.513 216.596 494.547 214.656C492.594 212.703 491.617 209.884 491.617 206.199C491.617 203.868 492.021 201.837 492.828 200.105C493.635 198.361 494.84 197.007 496.441 196.043C498.056 195.079 500.074 194.598 502.496 194.598C504.488 194.598 506.214 195.06 507.672 195.984C509.13 196.909 510.257 198.198 511.051 199.852C511.858 201.492 512.262 203.406 512.262 205.594V207.918H497.438C497.438 211.329 499.43 213.035 503.414 213.035C506.031 213.035 508.674 212.247 511.344 210.672V215.926C508.688 217.02 505.953 217.566 503.141 217.566ZM506.5 203.621C506.5 202.111 506.129 200.971 505.387 200.203C504.645 199.422 503.583 199.031 502.203 199.031C500.797 199.031 499.697 199.428 498.902 200.223C498.108 201.017 497.639 202.15 497.496 203.621H506.5Z" fill="white"/>
<rect x="194" y="797" width="562" height="100" rx="40" fill="white"/>
<path d="M284.062 860.566C280.312 860.566 277.415 859.258 275.371 856.641C274.395 855.391 273.633 853.841 273.086 851.992C272.552 850.143 272.285 847.949 272.285 845.41C272.285 840.501 273.327 836.764 275.41 834.199C277.493 831.608 280.456 830.312 284.297 830.312C285.534 830.312 286.719 830.475 287.852 830.801C288.997 831.139 290.059 831.621 291.035 832.246V838.633C290.228 837.591 289.303 836.803 288.262 836.27C287.233 835.749 286.087 835.488 284.824 835.488C282.624 835.488 280.983 836.309 279.902 837.949C278.822 839.616 278.281 842.103 278.281 845.41C278.281 848.652 278.802 851.139 279.844 852.871C280.339 853.678 280.957 854.303 281.699 854.746C282.454 855.176 283.359 855.391 284.414 855.391C284.674 855.391 284.941 855.378 285.215 855.352C285.488 855.326 285.736 855.28 285.957 855.215C286.243 855.15 286.458 855.078 286.602 855C286.745 854.922 286.888 854.831 287.031 854.727V849.16H283.086V844.316H292.07V857.676C290.964 858.626 289.746 859.342 288.418 859.824C287.741 860.072 287.051 860.254 286.348 860.371C285.645 860.501 284.883 860.566 284.062 860.566ZM302.91 835.527C302.52 835.527 302.324 835.332 302.324 834.941V829.434C302.324 829.043 302.52 828.848 302.91 828.848H307.461C307.852 828.848 308.047 829.043 308.047 829.434V834.941C308.047 835.332 307.852 835.527 307.461 835.527H302.91ZM309.961 860.234C307.253 860.234 305.299 859.525 304.102 858.105C302.917 856.673 302.324 854.342 302.324 851.113V842.52H297.695V838.125H308.047V851.113C308.047 852.806 308.314 854.017 308.848 854.746C309.395 855.475 310.299 855.84 311.562 855.84H316.133V860.234H309.961ZM334.355 860.078C332.207 860.078 330.521 859.857 329.297 859.414C328.073 858.971 327.207 858.21 326.699 857.129C326.204 856.048 325.957 854.564 325.957 852.676V842.52H320.371V838.125H325.957V832.148L331.68 829.609V838.125H339.16V842.52H331.68V852.949C331.68 853.913 331.921 854.609 332.402 855.039C332.897 855.469 333.685 855.684 334.766 855.684H339.16V860.078H334.355ZM344.98 830.84H350.742V841.953H357.949V830.84H363.711V860H357.949V847.031H350.742V860H344.98V830.84ZM375.781 860.566C373.75 860.566 372.201 859.87 371.133 858.477C370.065 857.07 369.531 855.033 369.531 852.363V838.125H375.254V851.484C375.254 854.414 376.152 855.879 377.949 855.879C379.043 855.879 379.889 855.423 380.488 854.512C381.1 853.6 381.406 852.324 381.406 850.684V838.125H387.129V860H381.973L381.406 856.758C380.534 859.297 378.659 860.566 375.781 860.566ZM404.961 860.566C402.292 860.566 400.352 859.297 399.141 856.758L398.574 860H393.438V829.609H399.141V841.23C400.521 838.809 402.461 837.598 404.961 837.598C407.409 837.598 409.329 838.613 410.723 840.645C412.129 842.663 412.832 845.469 412.832 849.062C412.832 852.656 412.135 855.475 410.742 857.52C409.349 859.551 407.422 860.566 404.961 860.566ZM403.145 855.879C404.342 855.879 405.299 855.26 406.016 854.023C406.745 852.773 407.109 851.1 407.109 849.004C407.109 846.96 406.758 845.345 406.055 844.16C405.365 842.962 404.414 842.363 403.203 842.363C401.966 842.363 400.977 842.982 400.234 844.219C399.505 845.443 399.141 847.077 399.141 849.121C399.141 851.165 399.505 852.806 400.234 854.043C400.964 855.267 401.934 855.879 403.145 855.879ZM441.309 830.84H449.629C453.379 830.84 456.074 831.504 457.715 832.832C458.535 833.496 459.147 834.375 459.551 835.469C459.954 836.549 460.156 837.799 460.156 839.219C460.156 840.312 460.033 841.25 459.785 842.031C459.551 842.812 459.186 843.503 458.691 844.102C458.223 844.674 457.643 845.143 456.953 845.508C456.276 845.859 455.449 846.1 454.473 846.23C455.085 846.374 455.586 846.641 455.977 847.031C456.172 847.227 456.393 847.526 456.641 847.93C456.901 848.333 457.194 848.861 457.52 849.512L462.793 860H456.465L452.949 852.637L452.539 851.777C451.992 850.658 451.432 849.831 450.859 849.297C450.286 848.75 449.635 848.477 448.906 848.477H447.07V860H441.309V830.84ZM449.785 843.633C451.361 843.633 452.493 843.32 453.184 842.695C453.496 842.409 453.743 842.025 453.926 841.543C454.108 841.061 454.199 840.43 454.199 839.648C454.199 838.216 453.861 837.201 453.184 836.602C452.493 835.99 451.361 835.684 449.785 835.684H447.07V843.633H449.785ZM475.938 860.566C472.174 860.566 469.31 859.596 467.344 857.656C465.391 855.703 464.414 852.884 464.414 849.199C464.414 846.868 464.818 844.837 465.625 843.105C466.432 841.361 467.637 840.007 469.238 839.043C470.853 838.079 472.871 837.598 475.293 837.598C477.285 837.598 479.01 838.06 480.469 838.984C481.927 839.909 483.053 841.198 483.848 842.852C484.655 844.492 485.059 846.406 485.059 848.594V850.918H470.234C470.234 854.329 472.227 856.035 476.211 856.035C478.828 856.035 481.471 855.247 484.141 853.672V858.926C481.484 860.02 478.75 860.566 475.938 860.566ZM479.297 846.621C479.297 845.111 478.926 843.971 478.184 843.203C477.441 842.422 476.38 842.031 475 842.031C473.594 842.031 472.493 842.428 471.699 843.223C470.905 844.017 470.436 845.15 470.293 846.621H479.297ZM489.844 838.125H494.98L495.547 841.406C496.758 838.867 498.698 837.598 501.367 837.598C503.828 837.598 505.755 838.62 507.148 840.664C508.542 842.695 509.238 845.508 509.238 849.102C509.238 852.695 508.542 855.508 507.148 857.539C505.755 859.557 503.841 860.566 501.406 860.566C498.841 860.566 496.888 859.349 495.547 856.914V868.32H489.844V838.125ZM499.551 855.801C500.749 855.801 501.706 855.182 502.422 853.945C503.151 852.695 503.516 851.022 503.516 848.926C503.516 846.882 503.164 845.267 502.461 844.082C501.771 842.884 500.82 842.285 499.609 842.285C498.372 842.285 497.383 842.904 496.641 844.141C495.911 845.365 495.547 846.999 495.547 849.043C495.547 851.087 495.911 852.728 496.641 853.965C497.37 855.189 498.34 855.801 499.551 855.801ZM523.047 860.566C520.977 860.566 519.18 860.104 517.656 859.18C516.146 858.242 514.98 856.914 514.16 855.195C513.34 853.477 512.93 851.445 512.93 849.102C512.93 846.758 513.34 844.727 514.16 843.008C514.993 841.276 516.172 839.941 517.695 839.004C519.232 838.066 521.048 837.598 523.145 837.598C525.215 837.598 526.999 838.06 528.496 838.984C529.993 839.896 531.146 841.204 531.953 842.91C532.773 844.616 533.184 846.641 533.184 848.984C533.184 851.367 532.767 853.424 531.934 855.156C531.113 856.888 529.948 858.223 528.438 859.16C526.927 860.098 525.13 860.566 523.047 860.566ZM523.066 855.918C524.408 855.918 525.475 855.306 526.27 854.082C527.064 852.845 527.461 851.178 527.461 849.082C527.461 846.973 527.064 845.306 526.27 844.082C525.475 842.858 524.408 842.246 523.066 842.246C521.712 842.246 520.638 842.865 519.844 844.102C519.049 845.326 518.652 846.986 518.652 849.082C518.652 851.178 519.049 852.845 519.844 854.082C520.638 855.306 521.712 855.918 523.066 855.918ZM547.012 860.566C544.551 860.566 541.823 860.111 538.828 859.199V854.199C541.393 855.671 543.965 856.406 546.543 856.406C549.225 856.406 550.566 855.612 550.566 854.023C550.566 853.32 550.247 852.754 549.609 852.324C548.971 851.895 547.884 851.517 546.348 851.191L544.766 850.84C540.573 849.902 538.477 847.747 538.477 844.375C538.477 842.214 539.251 840.547 540.801 839.375C542.363 838.19 544.622 837.598 547.578 837.598C548.724 837.598 549.857 837.695 550.977 837.891C552.109 838.086 553.275 838.392 554.473 838.809V843.809C553.327 843.092 552.227 842.572 551.172 842.246C550.13 841.921 549.056 841.758 547.949 841.758C546.647 841.758 545.645 841.947 544.941 842.324C544.238 842.702 543.887 843.21 543.887 843.848C543.887 844.434 544.212 844.941 544.863 845.371C545.527 845.788 546.595 846.165 548.066 846.504L549.922 846.953C552.005 847.448 553.529 848.242 554.492 849.336C555.469 850.43 555.957 851.875 555.957 853.672C555.957 858.268 552.975 860.566 547.012 860.566ZM568.027 835.527C567.637 835.527 567.441 835.332 567.441 834.941V829.434C567.441 829.043 567.637 828.848 568.027 828.848H572.578C572.969 828.848 573.164 829.043 573.164 829.434V834.941C573.164 835.332 572.969 835.527 572.578 835.527H568.027ZM575.078 860.234C572.37 860.234 570.417 859.525 569.219 858.105C568.034 856.673 567.441 854.342 567.441 851.113V842.52H562.812V838.125H573.164V851.113C573.164 852.806 573.431 854.017 573.965 854.746C574.512 855.475 575.417 855.84 576.68 855.84H581.25V860.234H575.078ZM599.473 860.078C597.324 860.078 595.638 859.857 594.414 859.414C593.19 858.971 592.324 858.21 591.816 857.129C591.322 856.048 591.074 854.564 591.074 852.676V842.52H585.488V838.125H591.074V832.148L596.797 829.609V838.125H604.277V842.52H596.797V852.949C596.797 853.913 597.038 854.609 597.52 855.039C598.014 855.469 598.802 855.684 599.883 855.684H604.277V860.078H599.473ZM619.453 860.566C617.383 860.566 615.586 860.104 614.062 859.18C612.552 858.242 611.387 856.914 610.566 855.195C609.746 853.477 609.336 851.445 609.336 849.102C609.336 846.758 609.746 844.727 610.566 843.008C611.4 841.276 612.578 839.941 614.102 839.004C615.638 838.066 617.454 837.598 619.551 837.598C621.621 837.598 623.405 838.06 624.902 838.984C626.4 839.896 627.552 841.204 628.359 842.91C629.18 844.616 629.59 846.641 629.59 848.984C629.59 851.367 629.173 853.424 628.34 855.156C627.52 856.888 626.354 858.223 624.844 859.16C623.333 860.098 621.536 860.566 619.453 860.566ZM619.473 855.918C620.814 855.918 621.882 855.306 622.676 854.082C623.47 852.845 623.867 851.178 623.867 849.082C623.867 846.973 623.47 845.306 622.676 844.082C621.882 842.858 620.814 842.246 619.473 842.246C618.118 842.246 617.044 842.865 616.25 844.102C615.456 845.326 615.059 846.986 615.059 849.082C615.059 851.178 615.456 852.845 616.25 854.082C617.044 855.306 618.118 855.918 619.473 855.918ZM636.23 838.125H641.387L641.953 841.523C642.513 840.286 643.366 839.323 644.512 838.633C645.671 837.943 647.025 837.598 648.574 837.598C650.176 837.598 651.66 837.969 653.027 838.711V844.16C651.764 843.014 650.111 842.441 648.066 842.441C646.413 842.441 645.072 842.819 644.043 843.574C643.014 844.329 642.376 845.417 642.129 846.836C642.064 847.174 642.018 847.585 641.992 848.066C641.966 848.548 641.953 849.167 641.953 849.922V860H636.23V838.125ZM658.301 863.926H658.926H659.512C660.462 863.926 661.23 863.887 661.816 863.809C662.402 863.743 662.878 863.568 663.242 863.281C663.62 863.008 663.958 862.565 664.258 861.953C664.557 861.341 664.902 860.488 665.293 859.395L656.973 838.125H662.988L667.988 852.324L672.773 838.125H678.789L669.707 862.363C669.316 863.418 668.835 864.395 668.262 865.293C667.702 866.191 666.999 866.914 666.152 867.461C665.306 868.008 664.264 868.281 663.027 868.281H658.301V863.926Z" fill="#1E1E1E"/>
<path d="M242 475.4C252.8 475.4 261.933 476.4 269.4 478.4C276.867 480.4 282.8 484.267 287.2 490C291.733 495.6 294 503.667 294 514.2C294 518.867 293.267 523.667 291.8 528.6C290.467 533.4 288.733 537.6 286.6 541.2C284.6 544.8 282.8 547.133 281.2 548.2C279.333 549.533 275.2 550.6 268.8 551.4C262.4 552.067 254.867 552.4 246.2 552.4C243.133 552.4 238.4 552.267 232 552V590H196V476C210 475.6 225.333 475.4 242 475.4ZM257 526.8C258.333 525.067 259 521.6 259 516.4C259 509.6 257.533 504.8 254.6 502C251.8 499.2 246.867 497.8 239.8 497.8C237.4 497.8 234.8 498 232 498.4V528.8C233.333 528.933 235.933 529 239.8 529C250.067 529 255.8 528.267 257 526.8ZM400.142 498L376.142 575C371.476 589.8 367.276 600.533 363.542 607.2C359.809 614 356.076 618.733 352.342 621.4C350.209 622.867 346.809 624 342.142 624.8C337.609 625.6 332.676 626 327.342 626C319.342 626 312.942 625.267 308.142 623.8C308.009 620.6 308.142 616.667 308.542 612C308.942 607.467 309.476 603.6 310.142 600.4C315.742 600.667 321.209 600.8 326.542 600.8C330.542 600.8 333.542 600.733 335.542 600.6C337.542 596.733 339.409 592.667 341.142 588.4L327.342 587.6L296.542 498H332.742L348.742 562.4L348.942 566.2H349.542L363.942 498H400.142ZM450.467 552.2C450.467 554.6 450.534 557.133 450.667 559.8C450.801 562.333 451.201 563.933 451.867 564.6C452.801 565.533 456.067 566 461.667 566L468.467 565.8C469.667 572.2 470.267 579.6 470.267 588C467.734 588.933 464.001 589.8 459.067 590.6C454.267 591.4 449.667 591.8 445.267 591.8C436.067 591.8 428.934 589.8 423.867 585.8C418.934 581.667 416.467 575.333 416.467 566.8V517.6H401.467V499.4L416.467 498L425.467 476L450.467 474.6V498H471.667V517.6H450.467V552.2ZM570.895 503.8C572.095 505.267 572.962 508.933 573.495 514.8C574.162 520.667 574.495 529.6 574.495 541.6V590H540.295V542C540.295 541.467 540.295 538.867 540.295 534.2C540.295 529.4 539.962 526.467 539.295 525.4C538.895 524.867 537.895 524.467 536.295 524.2C534.829 523.933 533.095 523.8 531.095 523.8L527.695 524C523.962 524.133 520.095 525 516.095 526.6V590H481.895V470L516.095 468.6V492C516.095 501.6 515.762 508 515.095 511.2L515.295 511.4C524.362 501.133 535.229 496 547.895 496C552.695 496 557.162 496.667 561.295 498C565.562 499.333 568.762 501.267 570.895 503.8ZM634.694 592.6C618.694 592.6 606.694 588.867 598.694 581.4C590.827 573.8 586.894 561.867 586.894 545.6C586.894 536.667 587.694 528.867 589.294 522.2C591.027 515.4 593.094 510.667 595.494 508C598.56 504.533 604.16 501.667 612.294 499.4C620.56 497.133 628.294 496 635.494 496C652.694 496 664.96 499.667 672.294 507C679.627 514.333 683.294 526.067 683.294 542.2C683.294 559.533 679.36 572.267 671.494 580.4C663.627 588.533 651.36 592.6 634.694 592.6ZM635.294 569.2C640.494 569.2 643.894 567.4 645.494 563.8C647.094 560.067 647.894 553.533 647.894 544.2C647.894 537.667 647.56 532.667 646.894 529.2C646.227 525.6 644.96 523 643.094 521.4C641.36 519.667 638.627 518.8 634.894 518.8C629.56 518.8 626.494 519.267 625.694 520.2C624.627 521.133 623.76 524.067 623.094 529C622.427 533.933 622.094 539.067 622.094 544.4C622.094 553.467 622.96 559.867 624.694 563.6C626.56 567.333 630.094 569.2 635.294 569.2ZM785.348 503.8C786.548 505.267 787.415 508.933 787.948 514.8C788.615 520.667 788.948 529.6 788.948 541.6V590H754.748V542V533.8C754.748 529.533 754.415 526.867 753.748 525.8C752.682 524.467 750.215 523.8 746.348 523.8C744.482 523.8 743.082 523.867 742.148 524C738.415 524.133 734.548 525 730.548 526.6V590H696.348V498H724.148L727.948 513.4C737.548 501.8 749.015 496 762.348 496C767.148 496 771.615 496.667 775.748 498C780.015 499.333 783.215 501.267 785.348 503.8Z" fill="#FFD43B"/>
<path d="M198.203 355.1H243.613V367.795H212.607V383.518H240.684V396.213H212.607V415.305H243.613V428H198.203V355.1ZM273.154 399.484L254.551 373.312H271.25L280.332 389.621L289.463 373.312H306.162L287.754 399.484L307.773 428H291.074L280.332 409.592L269.639 428H252.939L273.154 399.484ZM317.832 373.312H330.674L332.09 381.516C335.117 375.168 339.967 371.994 346.641 371.994C352.793 371.994 357.611 374.549 361.094 379.66C364.577 384.738 366.318 391.77 366.318 400.754C366.318 409.738 364.577 416.77 361.094 421.848C357.611 426.893 352.826 429.416 346.738 429.416C340.326 429.416 335.443 426.372 332.09 420.285V448.801H317.832V373.312ZM342.1 417.502C345.094 417.502 347.487 415.956 349.277 412.863C351.1 409.738 352.012 405.555 352.012 400.314C352.012 395.204 351.133 391.167 349.375 388.205C347.65 385.21 345.273 383.713 342.246 383.713C339.154 383.713 336.68 385.259 334.824 388.352C333.001 391.411 332.09 395.497 332.09 400.607C332.09 405.718 333.001 409.82 334.824 412.912C336.647 415.972 339.072 417.502 342.1 417.502ZM409.238 428.391C402.467 428.391 397.585 426.617 394.59 423.068C391.628 419.488 390.146 413.661 390.146 405.588V363.01H375.645V352.023H404.453V405.588C404.453 409.82 405.12 412.847 406.455 414.67C407.822 416.493 410.085 417.404 413.242 417.404H424.668V428.391H409.238ZM461.094 429.416C455.918 429.416 451.426 428.26 447.617 425.949C443.841 423.605 440.928 420.285 438.877 415.988C436.826 411.691 435.801 406.613 435.801 400.754C435.801 394.895 436.826 389.816 438.877 385.52C440.96 381.19 443.906 377.854 447.715 375.51C451.556 373.166 456.097 371.994 461.338 371.994C466.514 371.994 470.973 373.15 474.717 375.461C478.46 377.74 481.341 381.011 483.359 385.275C485.41 389.54 486.436 394.602 486.436 400.461C486.436 406.418 485.394 411.561 483.311 415.891C481.26 420.22 478.346 423.557 474.57 425.9C470.794 428.244 466.302 429.416 461.094 429.416ZM461.143 417.795C464.495 417.795 467.165 416.265 469.15 413.205C471.136 410.113 472.129 405.946 472.129 400.705C472.129 395.432 471.136 391.265 469.15 388.205C467.165 385.145 464.495 383.615 461.143 383.615C457.757 383.615 455.072 385.161 453.086 388.254C451.1 391.314 450.107 395.464 450.107 400.705C450.107 405.946 451.1 410.113 453.086 413.205C455.072 416.265 457.757 417.795 461.143 417.795ZM503.037 373.312H515.928L517.344 381.809C518.743 378.716 520.876 376.307 523.74 374.582C526.637 372.857 530.023 371.994 533.896 371.994C537.9 371.994 541.611 372.922 545.029 374.777V388.4C541.872 385.536 537.738 384.104 532.627 384.104C528.493 384.104 525.14 385.048 522.568 386.936C519.997 388.824 518.402 391.542 517.783 395.09C517.62 395.936 517.507 396.962 517.441 398.166C517.376 399.37 517.344 400.917 517.344 402.805V428H503.037V373.312ZM584.336 429.416C574.928 429.416 567.767 426.991 562.852 422.141C557.969 417.258 555.527 410.21 555.527 400.998C555.527 395.171 556.536 390.093 558.555 385.764C560.573 381.402 563.584 378.016 567.588 375.607C571.624 373.199 576.67 371.994 582.725 371.994C587.705 371.994 592.018 373.15 595.664 375.461C599.31 377.772 602.126 380.995 604.111 385.129C606.13 389.23 607.139 394.016 607.139 399.484V405.295H570.078C570.078 413.824 575.059 418.088 585.02 418.088C591.562 418.088 598.171 416.118 604.844 412.18V425.314C598.203 428.049 591.367 429.416 584.336 429.416ZM592.734 394.553C592.734 390.777 591.807 387.928 589.951 386.008C588.096 384.055 585.443 383.078 581.992 383.078C578.477 383.078 575.726 384.071 573.74 386.057C571.755 388.042 570.583 390.874 570.225 394.553H592.734ZM642.002 391.281C640.732 391.281 639.577 391.053 638.535 390.598C637.526 390.109 636.663 389.507 635.947 388.791C634.255 387.098 633.408 384.934 633.408 382.297C633.408 380.897 633.636 379.66 634.092 378.586C634.548 377.479 635.15 376.551 635.898 375.803C637.559 374.143 639.626 373.312 642.1 373.312C644.508 373.312 646.543 374.143 648.203 375.803C648.952 376.551 649.554 377.479 650.01 378.586C650.465 379.66 650.693 380.881 650.693 382.248C650.693 384.982 649.863 387.18 648.203 388.84C646.576 390.467 644.508 391.281 642.002 391.281ZM642.051 426.242C639.642 426.242 637.607 425.412 635.947 423.752C634.255 422.059 633.408 419.895 633.408 417.258C633.408 414.621 634.255 412.456 635.947 410.764C637.607 409.104 639.642 408.273 642.051 408.273C644.492 408.273 646.543 409.104 648.203 410.764C648.952 411.512 649.554 412.44 650.01 413.547C650.465 414.621 650.693 415.858 650.693 417.258C650.693 419.927 649.863 422.092 648.203 423.752C646.543 425.412 644.492 426.242 642.051 426.242Z" fill="white"/>
</g>
<defs>
<clipPath id="clip0_12_107">
<rect width="1920" height="1080" fill="white"/>
</clipPath>
</defs>
</svg>
