<svg width="260" height="80" viewBox="0 0 260 80" fill="none" xmlns="http://www.w3.org/2000/svg">
<path d="M62.85 20.3L64.35 20.6333L65.5667 21.0667L66.55 21.5667L67.3 22.1L67.8667 22.6667L68.2833 23.2333L68.55 23.7833L68.7167 24.2833L68.7833 24.7167L68.8167 25.05L68.8 25.2667V34.1667L68.7167 35.2167L68.5 36.1333L68.15 36.9L67.7167 37.5333L67.2167 38.05L66.6667 38.4667L66.0833 38.7833L65.5 39.0167L64.95 39.1833L64.45 39.3L64.0167 39.3667L63.6667 39.4H53.7167L52.5667 39.4833L51.5833 39.7167L50.75 40.0833L50.0667 40.5333L49.5167 41.0667L49.0667 41.65L48.7333 42.25L48.4833 42.8667L48.3167 43.45L48.2 43.9833L48.1333 44.4333L48.1 44.7833V49.8833H44.3833L44.0333 49.8333L43.5667 49.7167L43.0333 49.5167L42.45 49.2167L41.85 48.7833L41.25 48.1833L40.6667 47.4167L40.1333 46.4333L39.6667 45.2167L39.3167 43.75L39.0833 42L39 39.95L39.1 37.9167L39.3667 36.1833L39.7667 34.7333L40.3 33.55L40.9 32.6L41.5667 31.8667L42.2667 31.3167L42.9667 30.9167L43.6333 30.65L44.2333 30.4833L44.7667 30.4L45.1667 30.3833H45.4333L45.5333 30.4H59.1333V29.0167H49.4L49.3833 24.4333L49.35 23.8167L49.4333 23.25L49.6167 22.7333L49.9 22.2667L50.3167 21.8333L50.8333 21.45L51.4667 21.1167L52.2 20.8167L53.05 20.5667L54.0167 20.3667L55.0833 20.2L56.2667 20.1L57.55 20.0333L58.95 20L61.0667 20.0833L62.85 20.3ZM52.35 23.6L51.9667 24.15L51.8333 24.8333L51.9667 25.5167L52.35 26.0833L52.9 26.45L53.5833 26.6L54.2667 26.45L54.8167 26.0833L55.2 25.5167L55.3333 24.8333L55.2 24.15L54.8167 23.6L54.2667 23.2333L53.5833 23.0833L52.9 23.2333L52.35 23.6ZM74.1667 30.1833L74.6333 30.2833L75.1667 30.4833L75.75 30.7833L76.35 31.2333L76.95 31.8167L77.5333 32.6L78.0667 33.5833L78.5333 34.8L78.8833 36.2667L79.1167 38L79.2 40.05L79.1 42.1L78.8333 43.8333L78.4333 45.2667L77.9 46.45L77.3 47.4L76.6333 48.15L75.9333 48.7L75.2333 49.1L74.5667 49.3667L73.9667 49.5167L73.4333 49.6L73.0333 49.6333L72.7667 49.6167H59.0667V50.9833H68.8L68.8167 55.5833L68.85 56.1833L68.7667 56.75L68.5833 57.2667L68.3 57.75L67.8833 58.1667L67.3667 58.5667L66.7333 58.9L66 59.1833L65.15 59.4333L64.1833 59.65L63.1167 59.8L61.9333 59.9167L60.65 59.9833L59.25 60L57.1333 59.9333L55.35 59.7L53.85 59.3667L52.6333 58.95L51.65 58.45L50.9 57.9L50.3333 57.3333L49.9167 56.7667L49.65 56.2167L49.4833 55.7167L49.4167 55.3L49.3833 54.9667L49.4 54.75V45.85L49.4833 44.7833L49.7 43.8833L50.05 43.1167L50.4833 42.4833L50.9833 41.95L51.5333 41.55L52.1167 41.2167L52.7 40.9833L53.25 40.8167L53.75 40.7167L54.1833 40.65L54.5333 40.6167L54.75 40.6H64.4833L65.6333 40.5167L66.6167 40.2833L67.45 39.9333L68.1333 39.4667L68.6833 38.9333L69.1333 38.35L69.4667 37.75L69.7167 37.15L69.8833 36.5667L70 36.0333L70.0667 35.5667L70.1 35.2167V30.1167H73.5833L73.8167 30.1333L74.1667 30.1833ZM63.3833 53.9333L63 54.4833L62.8667 55.1667L63 55.85L63.3833 56.4L63.9333 56.7833L64.6167 56.9167L65.3 56.7833L65.85 56.4L66.2333 55.85L66.3667 55.1667L66.2333 54.4833L65.85 53.9333L65.3 53.55L64.6167 53.4167L63.9333 53.55L63.3833 53.9333Z" fill="#D7D7D7"/>
<path d="M95.488 32.756C96.088 31.82 96.916 31.064 97.972 30.488C99.028 29.912 100.264 29.624 101.68 29.624C103.336 29.624 104.836 30.044 106.18 30.884C107.524 31.724 108.58 32.924 109.348 34.484C110.14 36.044 110.536 37.856 110.536 39.92C110.536 41.984 110.14 43.808 109.348 45.392C108.58 46.952 107.524 48.164 106.18 49.028C104.836 49.868 103.336 50.288 101.68 50.288C100.288 50.288 99.052 50 97.972 49.424C96.916 48.848 96.088 48.104 95.488 47.192V59.576H89.332V29.912H95.488V32.756ZM104.272 39.92C104.272 38.384 103.84 37.184 102.976 36.32C102.136 35.432 101.092 34.988 99.844 34.988C98.62 34.988 97.576 35.432 96.712 36.32C95.872 37.208 95.452 38.42 95.452 39.956C95.452 41.492 95.872 42.704 96.712 43.592C97.576 44.48 98.62 44.924 99.844 44.924C101.068 44.924 102.112 44.48 102.976 43.592C103.84 42.68 104.272 41.456 104.272 39.92ZM134.286 29.912L121.686 59.54H115.062L119.67 49.316L111.498 29.912H118.374L123.018 42.476L127.626 29.912H134.286ZM147.708 44.78V50H144.576C142.344 50 140.604 49.46 139.356 48.38C138.108 47.276 137.484 45.488 137.484 43.016V35.024H135.036V29.912H137.484V25.016H143.64V29.912H147.672V35.024H143.64V43.088C143.64 43.688 143.784 44.12 144.072 44.384C144.36 44.648 144.84 44.78 145.512 44.78H147.708ZM163.485 29.696C165.789 29.696 167.637 30.464 169.029 32C170.421 33.512 171.117 35.6 171.117 38.264V50H164.997V39.092C164.997 37.748 164.649 36.704 163.953 35.96C163.257 35.216 162.321 34.844 161.145 34.844C159.969 34.844 159.033 35.216 158.337 35.96C157.641 36.704 157.293 37.748 157.293 39.092V50H151.137V23.36H157.293V32.612C157.917 31.724 158.769 31.016 159.849 30.488C160.929 29.96 162.141 29.696 163.485 29.696ZM184.539 50.288C182.571 50.288 180.795 49.868 179.211 49.028C177.651 48.188 176.415 46.988 175.503 45.428C174.615 43.868 174.171 42.044 174.171 39.956C174.171 37.892 174.627 36.08 175.539 34.52C176.451 32.936 177.699 31.724 179.283 30.884C180.867 30.044 182.643 29.624 184.611 29.624C186.579 29.624 188.355 30.044 189.939 30.884C191.523 31.724 192.771 32.936 193.683 34.52C194.595 36.08 195.051 37.892 195.051 39.956C195.051 42.02 194.583 43.844 193.647 45.428C192.735 46.988 191.475 48.188 189.867 49.028C188.283 49.868 186.507 50.288 184.539 50.288ZM184.539 44.96C185.715 44.96 186.711 44.528 187.527 43.664C188.367 42.8 188.787 41.564 188.787 39.956C188.787 38.348 188.379 37.112 187.563 36.248C186.771 35.384 185.787 34.952 184.611 34.952C183.411 34.952 182.415 35.384 181.623 36.248C180.831 37.088 180.435 38.324 180.435 39.956C180.435 41.564 180.819 42.8 181.587 43.664C182.379 44.528 183.363 44.96 184.539 44.96ZM210.556 29.696C212.908 29.696 214.78 30.464 216.172 32C217.588 33.512 218.296 35.6 218.296 38.264V50H212.176V39.092C212.176 37.748 211.828 36.704 211.132 35.96C210.436 35.216 209.5 34.844 208.324 34.844C207.148 34.844 206.212 35.216 205.516 35.96C204.82 36.704 204.472 37.748 204.472 39.092V50H198.316V29.912H204.472V32.576C205.096 31.688 205.936 30.992 206.992 30.488C208.048 29.96 209.236 29.696 210.556 29.696Z" fill="#D7D7D7"/>
</svg>
